<mxfile host="app.diagrams.net" modified="2023-06-09T22:32:46.249Z" agent="Mozilla/5.0 (Windows NT 10.0; Win64; x64) AppleWebKit/537.36 (KHTML, like Gecko) Chrome/114.0.0.0 Safari/537.36" version="21.3.7" etag="EBIC_uyzfnPRnk3F8DR6" type="github">
  <diagram name="Page-1" id="0kBF7J_kD4KtK5fHcLDo">
    <mxGraphModel>
      <root>
        <mxCell id="0" />
        <mxCell id="1" parent="0" />
      </root>
    </mxGraphModel>
  </diagram>
</mxfile>
